<svg width="338" height="69" viewBox="0 0 338 69" fill="none" xmlns="http://www.w3.org/2000/svg">
<g opacity="0.66">
<g opacity="0.8">
<path d="M337.966 49.4838C328.378 46.48 295.824 46.0983 281.659 44.8038C276.194 44.5217 272.037 44.2396 268.919 43.8911C266.287 43.5924 272.372 43.9575 281.659 44.8038C285.816 45.0196 290.711 45.2354 296.477 45.4677C289.286 44.1733 282.396 42.8954 277.451 41.8499C273.813 41.7835 270.142 41.6839 266.421 41.5677C249.993 41.0864 234.118 41.02 217.874 40.2235C211.991 39.9081 199.133 39.8252 193.417 39.1945L265.013 40.1571C264.359 40.0907 263.722 40.0243 263.085 39.9248L225.451 38.5473C223.323 38.5307 221.16 38.4644 218.947 38.315L225.451 38.5473C231.034 38.5971 236.448 38.2819 242.516 38.2155C246.271 38.2984 250.546 38.7796 254.301 38.8626C257.369 38.9788 260.185 39.5431 263.085 39.9248L268.701 40.1405C269.254 40.0907 269.841 40.0409 270.427 40.0243C270.411 40.0243 270.36 40.0077 270.36 39.9911C265.717 37.4354 218.411 33.8342 210.566 34.3155C204.313 34.6308 198.614 36.7219 191.64 36.9708C189.31 37.0538 187.349 36.4895 185.572 36.9708C185.404 37.2861 184.499 37.535 183.61 37.7674C178.984 37.9333 174.34 36.7219 170.77 37.6844C168.272 38.0827 161.299 32.8717 160.762 33.8342C158.801 37.3525 160.226 34.7968 154.342 34.4815C153.621 34.3985 151.308 35.8423 149.883 35.6929C145.072 34.8134 143.63 36.0082 138.098 36.4231C129.884 37.5516 128.09 35.3112 120.782 37.5516C119.893 37.8005 108.477 39.2444 108.477 39.2444C99.5594 38.9291 94.0275 40.6882 87.054 38.2155C79.0244 40.3729 68.3127 37.8172 59.7467 38.2155C51.1806 38.6138 47.6101 36.8545 40.1001 35.3278C37.9544 35.0954 36.3452 35.2448 35.1047 34.7636C33.8475 34.2823 30.8133 35.6432 28.6844 35.4108C28.8688 35.0955 29.0364 34.7636 29.2208 34.4482C28.5 34.3653 27.0751 34.2159 26.371 34.1329C25.6502 34.05 25.8346 33.7346 26.019 33.4027C26.371 32.7555 26.7231 32.1249 25.4826 31.6436C22.4987 31.0959 19.4478 30.681 16.3298 30.3823C13.2454 30.8636 10.1945 31.4112 7.19387 32.0087C7.02623 32.4567 6.80831 32.8882 6.38922 33.2533C5.50077 33.4857 4.59556 33.7347 3.70711 33.967C3.17068 34.9296 3.35508 35.975 2.98628 36.6223C2.98628 39.3439 -0.751917 41.9826 0.136536 44.4719C0.488564 45.2021 5.6684 45.4345 7.9985 46.7124C8.53492 47.1107 7.27768 47.9902 6.75802 48.9527C9.79217 48.9527 9.97656 49.9982 8.71932 50.8778C9.44014 50.9607 10.1442 51.0438 10.1442 51.0438C9.95981 51.3591 9.42338 52.3217 9.42338 52.3217C17.101 53.5166 25.667 55.8399 33.1601 54.645C34.7694 54.479 37.4348 53.7654 39.2285 53.2841C40.1169 53.0518 42.0782 53.5994 42.799 53.6824C44.0563 52.8029 43.8719 51.7574 44.4083 50.7948C49.9402 51.7574 61.9091 53.4335 61.5403 49.9816C65.9994 50.1476 66.8878 48.5379 71.5312 48.3719C77.6834 48.1064 85.4783 47.9072 93.1726 47.7744C97.3802 47.5421 101.42 47.6085 105.494 47.6085C107.019 47.6085 108.494 47.5753 109.902 47.5753C140.428 47.2434 162.941 49.9319 192.73 47.3098C252.759 42.0324 318.89 49.9651 333.675 50.7451L338 49.5335L337.966 49.4838Z" fill="#32728A" fill-opacity="0.7"/>
</g>
</g>
<path d="M64.9433 11.9445C63.4011 16.0602 60.786 19.5618 57.0981 22.4495C55.1033 23.8269 52.7899 23.5115 50.1749 21.5366V20.6239C55.8576 18.7984 60.4675 15.6784 64.0046 11.264L64.9265 11.9445H64.9433ZM60.3166 29.7514C60.0149 35.228 58.3218 39.8747 55.2374 43.6751C53.2425 46.264 52.0021 44.8202 51.5495 39.3437C54.9356 36.6054 57.5507 33.3361 59.3947 29.5191L60.3166 29.7514ZM80.1476 22.6651C80.1476 24.3413 79.6782 25.2541 78.7562 25.4034C77.8342 25.2541 77.3649 24.3413 77.3649 22.6651V8.50918C68.9162 8.50918 61.3057 8.89088 54.5333 9.65428C53.6113 9.65428 53.0749 9.18957 52.924 8.27682C52.924 7.51343 53.3934 6.98243 54.3154 6.68371C60.149 6.06968 66.5358 5.77088 73.459 5.77088V1.43947C73.459 0.676075 73.9284 0.227967 74.8504 0.0620117C75.7724 0.211372 76.2417 0.676075 76.2417 1.43947V5.77088C82.8465 5.62152 89.4679 5.85391 96.0727 6.45135C98.2184 6.75007 98.6039 7.59646 97.2293 8.95729C95.8548 10.3181 94.4634 10.8657 93.072 10.5504C88.7639 9.17297 84.4557 8.49257 80.1643 8.49257V22.6486L80.1476 22.6651ZM72.0844 10.3347V13.3053C72.0844 18.9312 69.4023 23.3456 64.0213 26.5485C62.0265 27.4613 60.1825 26.9302 58.4894 24.9553V24.0426C65.8653 21.603 69.5532 18.035 69.5532 13.3053V10.3347C70.3243 8.80786 71.1625 8.80786 72.0844 10.3347ZM78.3036 39.3271C83.6846 41.4513 91.5969 42.2147 102.057 41.6173L102.527 42.53C97.9166 46.9444 93.1558 48.1559 88.2275 46.1811C80.7008 43.1441 75.0012 41.1526 71.1625 40.2398C68.3965 39.6258 66.0832 39.6258 64.2392 40.2398C62.2444 40.7045 62.0097 39.8581 63.552 37.7339L66.5526 37.2693C67.4745 35.2944 68.5474 32.2408 69.7879 28.1417C70.2572 27.229 70.8607 26.9302 71.6318 27.2289C72.403 27.5276 72.7047 28.0587 72.5538 28.8221C71.481 32.3238 70.4081 35.2113 69.3185 37.5015C71.9336 37.6509 74.9342 38.265 78.3204 39.3271H78.3036ZM81.5389 26.9966C83.3829 27.6107 84.0702 28.1417 83.6176 28.5897L79.0077 34.7467L78.0857 34.282L78.773 26.98C78.773 26.366 79.695 26.366 81.5389 26.98V26.9966ZM84.7742 10.7994C89.3841 15.9772 94.4634 19.3295 99.9953 20.8396V21.7524C96.76 23.8766 94.0778 24.2583 91.9321 22.8975C88.8645 20.0099 86.1656 16.1929 83.869 11.4797L84.791 10.7994H84.7742ZM91.9154 32.2574C92.9882 33.6348 93.3738 34.3816 93.072 34.5476L84.7742 37.5181L84.3049 36.6054L89.3841 30.6642C89.6859 30.3655 90.5408 30.8965 91.9154 32.2574Z" fill="#18495B"/>
<path d="M148.642 26.5486C149.413 26.6979 149.866 27.229 150.034 28.1418C149.564 29.0545 149.028 29.4362 148.424 29.2869C144.267 28.8222 139.892 28.6064 135.282 28.6064V32.7222C144.502 32.7222 152.498 33.1038 159.27 33.8672C161.583 34.0165 162.573 34.4812 162.271 35.2446C161.349 37.2195 159.354 38.0659 156.27 37.7506C149.665 36.2238 142.658 35.4604 135.282 35.4604V44.1398C135.282 45.8159 134.813 46.7287 133.891 46.8781C132.969 46.7287 132.499 45.8159 132.499 44.1398V35.4604C125.425 35.4604 117.429 36.1408 108.511 37.5182C107.438 37.5182 106.818 37.0536 106.667 36.1408C106.516 35.2281 106.969 34.614 108.058 34.3153C117.429 33.2532 125.576 32.7222 132.499 32.7222V28.6064C128.191 28.6064 123.883 28.8388 119.592 29.2869C118.82 29.2869 118.368 28.9052 118.2 28.1418C118.033 27.3784 118.435 26.8473 119.357 26.5486C123.665 26.0839 128.04 25.8682 132.499 25.8682V21.5367H127.202L126.967 25.4201L126.045 25.6524L124.889 21.769C121.201 21.9184 117.429 22.2337 113.59 22.6818C112.668 22.6818 112.132 22.2172 111.981 21.3044C111.981 20.541 112.45 20.0099 113.372 19.7112C117.53 19.4125 121.067 19.1802 123.983 19.0308L123.296 16.9729C123.145 16.3589 123.833 16.0602 125.375 16.0602C126.917 15.9108 127.688 16.1432 127.688 16.7407L127.454 18.7985H132.533V15.1474C128.694 15.1474 124.838 15.3797 121 15.8278C120.229 15.8278 119.776 15.4461 119.608 14.6827C119.441 13.9193 119.843 13.3883 120.765 13.0896C129.532 12.1769 138.283 12.1769 147.05 13.0896C147.821 13.239 148.273 13.77 148.441 14.6827C147.972 15.5955 147.435 15.9772 146.832 15.8278C142.993 15.3631 139.137 15.1474 135.299 15.1474V18.7985H140.378L140.613 16.5083C140.613 15.8943 141.384 15.8279 142.926 16.2759C144.317 16.7406 144.921 17.1057 144.77 17.421L144.083 19.0142C147.921 19.0142 152.146 19.2465 156.772 19.6946C157.544 19.844 157.544 20.4581 156.772 21.5202C155.549 22.5823 154.241 22.9639 152.85 22.6652C149.782 22.0511 146.396 21.7524 142.708 21.7524L140.864 25.6358L139.942 25.4035L140.177 21.5202H135.332V25.8516C139.942 25.8516 144.401 26.0839 148.709 26.532L148.642 26.5486ZM127.202 12.3926L125.593 7.5965C122.827 7.74586 118.988 8.12756 114.06 8.74159C112.987 8.74159 112.367 8.27689 112.216 7.36414C112.216 6.45138 112.685 5.92029 113.607 5.77093C117.597 5.30625 121.301 5.00755 124.671 4.85819L123.514 1.65527C123.363 1.04123 124.051 0.659533 125.593 0.510173C127.286 0.360813 128.124 0.593208 128.124 1.19065V4.60932H140.11V0.725923C140.11 0.111888 140.948 -0.103809 142.641 0.0455509C144.183 0.194911 144.871 0.576612 144.72 1.19065L143.563 4.60932C148.022 4.75868 151.626 5.07398 154.409 5.52206C155.8 5.98673 156.018 6.66713 155.096 7.57989C154.023 8.642 152.783 9.0237 151.408 8.72498C147.871 7.96159 144.954 7.51348 142.641 7.34752L141.032 12.1437L140.11 11.9113V7.34752H128.124V12.1437L127.202 12.376V12.3926Z" fill="#18495B"/>
<path d="M212.527 12.6248C214.673 14.4503 215.762 17.1222 215.762 20.6072C215.762 25.9344 212.913 30.7306 207.23 34.9956C203.24 38.0326 198.312 40.3228 192.478 41.8496C190.165 42.613 187.935 41.7002 185.79 39.1113L186.259 38.1986C194.406 37.2858 200.558 35.4603 204.715 32.7221C210.549 28.9217 213.332 24.8889 213.013 20.6239C212.862 17.8856 212.007 15.9107 210.482 14.6826C208.487 13.0065 205.637 12.1768 201.949 12.1768C193.182 12.1768 183.04 13.8529 171.507 17.2052C170.116 17.5039 169.278 17.0558 168.976 15.8277C168.674 14.5997 169.127 13.8528 170.367 13.5375C181.582 10.7993 192.126 9.42188 201.966 9.42188C206.576 9.42188 210.113 10.484 212.577 12.6248H212.527Z" fill="#18495B"/>
<path d="M260.034 10.3348C261.425 10.6336 261.576 11.397 260.503 12.625C259.28 13.6871 257.972 14.0688 256.581 13.7701C253.195 12.8574 249.356 12.3928 245.048 12.3928L244.36 20.1595C245.132 21.8356 245.282 23.7441 244.83 25.8683L243.221 36.3732C242.919 38.1987 243.522 39.4932 245.064 40.2566C246.288 40.8707 248.685 41.1694 252.206 41.1694C260.654 41.1694 267.661 39.2609 273.193 35.4605L273.881 36.141C272.187 39.792 270.109 42.1485 267.661 43.2106C265.214 44.2727 260.051 44.8038 252.206 44.8038C247.126 44.8038 243.673 43.974 241.829 42.2978C240.287 40.9204 239.751 38.8792 240.22 36.141L241.142 30.4321C239.751 33.3197 238.225 34.7635 236.532 34.7635C234.839 34.7635 233.531 33.8507 232.609 32.0252C231.838 30.3491 231.453 28.4406 231.453 26.3163C231.453 23.5781 232.14 21.2879 233.531 19.4624C234.755 17.7862 236.214 16.9565 237.907 16.9565C239.298 16.9565 240.522 17.3381 241.595 18.1015L242.064 12.3928C238.527 12.5421 234.604 13.0731 230.296 13.9859C229.223 14.1352 228.536 13.7535 228.217 12.8408C228.067 11.7787 228.519 11.0983 229.609 10.7829C233.146 10.1689 237.37 9.7208 242.299 9.40549L242.768 3.92898C242.768 2.71751 243.304 2.10352 244.377 2.10352C245.45 2.10352 245.919 2.78392 245.769 4.16135L245.299 9.40549C251.904 9.40549 256.832 9.70429 260.051 10.3183L260.034 10.3348ZM235.124 21.5203C234.353 22.8977 233.967 24.4908 233.967 26.3163C233.967 27.6938 234.118 28.8223 234.437 29.735C234.906 31.1124 235.509 31.7928 236.281 31.7928C237.353 31.7928 238.426 30.4984 239.516 27.9095C240.438 25.47 240.974 23.3458 241.125 21.5203C240.203 20.1429 239.13 19.4624 237.89 19.4624C236.817 19.4624 235.895 20.1429 235.124 21.5203ZM278.943 17.6369L279.178 18.5496C277.183 20.8398 275.339 21.3709 273.646 20.1429C271.031 18.3173 268.114 15.1144 264.879 10.5506C264.409 9.33911 264.795 8.95741 266.035 9.40549C269.422 12.7578 273.73 15.4961 278.943 17.6203V17.6369Z" fill="#18495B"/>
<path d="M324.371 40.0244C323.902 41.8499 322.98 43.0614 321.606 43.6754C319.611 44.1401 316.694 44.3558 312.838 44.3558C305.463 44.3558 300.082 43.3601 296.695 41.3852C292.857 39.0951 290.627 35.7594 290.007 31.345C290.476 30.4322 291.08 30.3492 291.851 31.1126C292.924 34.913 295.153 37.5019 298.539 38.8793C301.607 40.0908 306.385 40.7049 312.838 40.7049C315.604 40.7049 319.225 40.2402 323.684 39.3274L324.371 40.0078V40.0244ZM314.448 7.82913C319.359 7.82913 322.98 8.12783 325.293 8.74186C326.987 9.20654 327.221 9.88694 325.981 10.7997C324.74 11.7124 323.667 12.0111 322.745 11.7124C320.13 10.949 317.599 10.5673 315.135 10.5673C315.906 13.0069 316.593 14.8324 317.214 16.0438C322.745 16.0438 327.892 16.5749 332.669 17.637C334.061 18.1017 334.279 18.8485 333.357 19.9272C331.965 20.84 330.44 21.0723 328.747 20.6076C326.132 19.6949 322.745 19.0809 318.605 18.7821C320.6 22.2838 322.595 25.0221 324.606 26.997C325.528 28.0591 325.763 28.9055 325.293 29.5029C324.673 30.2663 323.684 30.3326 322.293 29.7352C318.907 28.059 315.219 26.6982 311.229 25.6195L311.464 24.7068L319.309 25.6195C317.918 23.4953 316.627 21.2051 315.386 18.7655C307.692 18.7655 301.02 19.4459 295.321 20.8234C294.248 20.9727 293.561 20.591 293.242 19.6783C293.091 18.6161 293.544 17.9357 294.633 17.6204C300.635 16.5583 307.089 16.0272 314.012 16.0272C313.542 14.9651 312.939 13.1396 312.168 10.5507C306.938 10.5507 301.942 11.0818 297.181 12.1439C296.109 12.2933 295.421 11.9116 295.103 10.9988C294.952 9.93672 295.405 9.25632 296.494 8.941C301.573 8.17761 306.569 7.79591 311.481 7.79591L310.559 3.4645C310.408 2.55174 310.793 1.93765 311.715 1.63893C312.637 1.63893 313.257 2.10363 313.559 3.01639L314.481 7.81252L314.448 7.82913ZM334.044 8.97412L334.279 9.88696C332.435 11.7125 330.825 11.9448 329.434 10.5673C327.59 8.74182 326.199 6.61764 325.277 4.17809L326.199 3.71337C328.512 6.00355 331.11 7.74614 334.044 8.95761V8.97412ZM337.732 5.7712L337.966 6.68403C336.123 8.50954 334.513 8.74184 333.122 7.36441C330.976 5.24018 329.501 3.33169 328.747 1.65554L329.669 1.19092C332.435 3.4811 335.133 4.99129 337.732 5.75469V5.7712Z" fill="#18495B"/>
<path d="M232.777 67.5729V67.0086L234.571 66.8427C234.604 65.0338 234.587 63.2746 234.604 61.698L234.655 55.8232L230.011 67.5729H229.341L224.58 55.8563L224.664 60.7354V66.7928L226.591 67.0086V67.5729H222.049V67.0086L223.909 66.7928L223.943 55.093L222.149 54.927V54.3628H225.904L230.246 65.1333L234.52 54.3628H238.326V54.927L236.498 55.093C236.465 56.8687 236.465 58.6777 236.465 60.5032V61.4656C236.465 63.2745 236.465 65.0835 236.498 66.8592L238.359 67.0252V67.5894H232.777V67.5729Z" fill="#32728A"/>
<path d="M246.858 67.0085L248.836 66.826L247.613 63.1086H243.036L241.829 66.8094L243.573 67.0085V67.5728H239.482V67.0085L241.041 66.826L245.249 54.2798H246.439L250.747 66.8591L252.323 67.0085V67.5728H246.825V67.0085H246.858ZM243.237 62.5443H247.428L245.316 56.1053L243.237 62.5443Z" fill="#32728A"/>
<path d="M253.446 54.3794H259.062V54.9436L257.218 55.093C257.184 56.9019 257.184 58.6943 257.184 60.5198V61.4491C257.184 63.2746 257.184 65.0503 257.218 66.8592L259.062 67.0252V67.5894H253.446V67.0252L255.273 66.8592C255.307 65.1 255.307 63.2745 255.307 61.4656V60.5032C255.307 58.6777 255.307 56.8853 255.273 55.0764L253.446 54.927V54.3628V54.3794Z" fill="#32728A"/>
<path d="M260.923 54.3794H266.454C270.628 54.3794 273.109 56.7857 273.109 60.9678C273.109 65.1499 270.494 67.5563 266.169 67.5563H260.906V66.992L262.733 66.8261C262.767 65.0503 262.767 63.2082 262.767 61.1006V60.5695C262.767 58.6776 262.767 56.8521 262.733 55.0598L260.906 54.9105V54.3462L260.923 54.3794ZM266.052 66.9588C269.388 66.9588 271.131 64.7018 271.131 60.9844C271.131 57.267 269.371 55.0266 266.22 55.0266H264.694C264.678 56.8521 264.678 58.6777 264.678 60.6194V61.1503C264.678 63.2911 264.678 65.1499 264.694 66.992H266.052V66.9588Z" fill="#32728A"/>
<path d="M279.681 54.3794H285.296V54.9436L283.452 55.093C283.419 56.9019 283.419 58.6943 283.419 60.5198V61.4491C283.419 63.2746 283.419 65.0503 283.452 66.8592L285.296 67.0252V67.5894H279.681V67.0252L281.508 66.8592C281.541 65.1 281.541 63.2745 281.541 61.4656V60.5032C281.541 58.6777 281.541 56.8853 281.508 55.0764L279.681 54.927V54.3628V54.3794Z" fill="#32728A"/>
<path d="M293.192 67.5727V67.0747L294.633 66.9254L294.667 63.4238V61.2332C294.667 59.5404 294.08 58.943 293.058 58.943C292.354 58.943 291.331 59.3247 290.225 60.4034V63.4238L290.258 66.9254L291.583 67.0747V67.5727H286.956V67.0747L288.414 66.9254L288.448 63.4238V62.2455C288.448 61.0174 288.431 60.171 288.398 59.2914L286.855 59.1753V58.7272L289.873 57.9306L290.107 58.08L290.191 59.7894C291.432 58.3954 292.588 57.8809 293.795 57.8809C295.421 57.8809 296.394 58.8766 296.394 61.2829V63.4072C296.394 64.4195 296.41 65.9131 296.444 66.9088L297.768 67.0581V67.5561H293.158L293.192 67.5727Z" fill="#32728A"/>
<path d="M306.217 55.9392V52.4375L308.245 52.6367C308.212 52.8857 308.044 53.0682 307.591 53.118V55.9226H308.011L308.899 55.0762L310.324 56.5034C310.156 56.6528 309.938 56.6694 309.519 56.7026C309.05 57.5987 308.396 58.5778 307.608 59.4906C310.994 60.6191 310.005 62.8927 308.832 62.0795C308.648 61.3825 308.128 60.5694 307.575 59.9553V68.5186C307.575 68.6513 307.105 68.9999 306.435 68.9999H306.183V61.0506C305.328 61.8638 304.423 62.6106 303.484 63.2081L303.267 63.0255C305.161 61.3161 307.072 58.5945 307.96 56.4205H303.92L303.753 55.9226H306.234L306.217 55.9392ZM317.851 53.6822L318.739 52.5537C318.739 52.5537 319.762 53.3503 320.382 53.9311C320.348 54.1303 320.147 54.2132 319.896 54.2132H310.24L310.089 53.6822H317.867H317.851ZM310.274 60.4199L311.833 61.0506H318.236L318.923 60.254L320.399 61.3659C320.298 61.5153 320.097 61.6148 319.711 61.6646V68.4855C319.711 68.4855 319.225 68.8671 318.521 68.8671H318.286V67.7719H311.631V68.585C311.631 68.6846 311.196 68.9999 310.491 68.9999H310.274V60.4034V60.4199ZM311.179 55.1758L312.721 55.8064H317.364L318.035 55.0264L319.477 56.1051C319.359 56.2545 319.192 56.3375 318.823 56.3872V59.6068C318.823 59.6068 318.337 59.9553 317.683 59.9553H317.431V59.3247H312.553V59.7396C312.553 59.8391 312.118 60.1212 311.413 60.1212H311.196V55.1592L311.179 55.1758ZM314.263 64.0379V61.5817H311.648V64.0379H314.263ZM311.648 67.2574H314.263V64.5523H311.648V67.2574ZM317.415 58.8102V56.3209H312.537V58.8102H317.415ZM318.303 61.5817H315.604V64.0379H318.303V61.5817ZM315.604 64.5523V67.2574H318.303V64.5523H315.604Z" fill="#32728A"/>
<path d="M337.966 56.9018C337.916 57.1507 337.765 57.3333 337.296 57.3831V68.1702C337.296 68.3528 336.642 68.6681 336.055 68.6681H335.77V66.743H324.673V68.4523C324.673 68.6349 324.036 68.9502 323.449 68.9502H323.165V56.7193L325.344 56.9516C325.293 57.2006 325.143 57.3665 324.673 57.4329V66.212H329.417V52.8027L331.596 53.0351C331.563 53.284 331.395 53.4666 330.926 53.5329V66.1953H335.77V56.6529L337.966 56.8687V56.9018Z" fill="#32728A"/>
</svg>
