<svg width="1920" height="1162" viewBox="0 0 1920 1162" fill="none" xmlns="http://www.w3.org/2000/svg">
<path fill-rule="evenodd" clip-rule="evenodd" d="M2020.1 1122.06L1934.16 1132.53C1848.21 1142.99 1676.32 1163.92 1502.77 1148.77C1329.21 1133.62 1153.97 1081.76 980.118 1060.28C806.301 1039.43 633.856 1048.34 461.411 1057.24C288.965 1066.14 116.52 1075.04 30.3124 1079.81L-55.8955 1084.58L-66 865.574L20.5 867.135C107 868.697 280 871.82 453 874.943C626 878.067 799 881.19 972 884.313C1145 887.436 1318 890.56 1491 893.683C1664 896.806 1837 899.93 1923.5 901.491L2010 903.053L2020.1 1122.06Z" fill="#E2E8E8"/>
<path fill-rule="evenodd" clip-rule="evenodd" d="M1965.15 1100.84L1884.04 1111.28C1802.93 1121.71 1640.71 1142.58 1476.46 1128.32C1312.21 1114.06 1145.9 1064.06 981.289 1043.63C816.718 1023.83 653.823 1032.98 490.928 1042.14C328.033 1051.3 165.138 1060.46 83.7079 1065.35L2.27817 1070.23L-10.0593 857L71.727 858.275C153.513 859.551 317.086 862.102 480.659 864.652C644.231 867.203 807.804 869.754 971.377 872.305C1134.95 874.856 1298.52 877.406 1462.09 879.957C1625.67 882.508 1789.24 885.059 1871.03 886.334L1952.81 887.61L1965.15 1100.84Z" fill="#C6DCD9"/>
<path fill-rule="evenodd" clip-rule="evenodd" d="M1958.04 1084.19L1877.22 1092.01C1796.39 1099.83 1634.74 1115.46 1471.73 1103.4C1308.72 1091.33 1144.32 1051.08 981.073 1034.16C817.846 1017.72 655.742 1024.12 493.638 1030.52C331.534 1036.92 169.43 1043.32 88.3894 1046.76L7.34921 1050.2L-0.91194 882.072L80.367 883.488C161.646 884.904 324.204 887.737 486.762 890.569C649.319 893.402 811.877 896.234 974.435 899.067C1136.99 901.9 1299.55 904.732 1462.11 907.565C1624.67 910.397 1787.22 913.23 1868.5 914.646L1949.78 916.062L1958.04 1084.19Z" fill="#B6D1D1"/>
<path fill-rule="evenodd" clip-rule="evenodd" d="M-71.8069 212.518L13.719 199.05C99.2449 185.582 270.297 158.645 444.276 167.707C618.255 176.769 795.212 222.462 969.704 237.84C1144.15 252.586 1316.17 237.649 1488.2 222.712C1660.23 207.775 1832.26 192.838 1918.24 185.053L2004.23 177.269L2022 395.788L1935.5 397.257C1849 398.726 1675.99 401.663 1502.99 404.601C1329.99 407.538 1156.98 410.476 983.981 413.413C810.978 416.35 637.974 419.288 464.971 422.225C291.968 425.163 118.965 428.1 32.4631 429.569L-54.0385 431.038L-71.8069 212.518Z" fill="#E2E8E8"/>
<path fill-rule="evenodd" clip-rule="evenodd" d="M-16.1436 231.797L64.55 218.528C145.244 205.26 306.631 178.724 471.28 187.223C635.929 195.722 803.896 239.871 969.117 254.517C1134.28 268.548 1296.76 253.69 1459.23 238.832C1621.7 223.974 1784.18 209.117 1865.39 201.38L1946.6 193.644L1966.39 406.316L1884.61 407.906C1802.83 409.495 1639.27 412.675 1475.71 415.854C1312.15 419.033 1148.59 422.213 985.024 425.392C821.462 428.572 657.901 431.751 494.339 434.93C330.777 438.11 167.216 441.289 85.435 442.879L3.65417 444.469L-16.1436 231.797Z" fill="#C6DCD9"/>
<path fill-rule="evenodd" clip-rule="evenodd" d="M-8.45816 248.187L72.0438 237.545C152.546 226.902 313.55 205.618 476.884 211.967C640.218 218.316 805.923 252.783 969.666 263.98C1133.37 274.692 1295.15 262.618 1456.93 250.545C1618.71 238.472 1780.49 226.398 1861.36 220.119L1942.23 213.84L1956.37 381.58L1875.1 383.011C1793.82 384.442 1631.26 387.305 1468.7 390.167C1306.14 393.029 1143.59 395.891 981.03 398.754C818.473 401.616 655.916 404.478 493.358 407.34C330.801 410.203 168.244 413.065 86.9649 414.496L5.68625 415.927L-8.45816 248.187Z" fill="#B6D1D1"/>
<rect x="-1" y="376" width="1922" height="560" fill="#B6D1D1"/>
<g opacity="0.5" clip-path="url(#clip0_28_920)">
<path d="M1313.76 373.667C1311.88 373.801 1305.81 381.924 1308.03 384.404C1310.25 386.884 1317.2 379.531 1317.82 377.869C1318.45 376.206 1317.67 373.389 1313.76 373.667Z" fill="#24989F"/>
<path d="M1343.5 369.64C1338.41 369.172 1339.93 375.814 1341.95 377.051C1343.98 378.288 1345.41 378.312 1346.71 375.972C1348.01 373.631 1346.37 369.907 1343.5 369.64Z" fill="#E2E8E8"/>
<path d="M1329.21 327.642C1327 327.879 1323.07 329.47 1324.95 333.525C1326.83 337.58 1331.23 338.133 1332.67 335.733C1334.11 333.333 1332.07 327.345 1329.21 327.642Z" fill="#176E81"/>
<path d="M1340.81 410.431C1343.82 411.402 1346.82 407.448 1347.82 406.562C1350.43 402.506 1343.85 402.707 1342.96 402.915C1335.4 404.661 1336.82 409.155 1340.81 410.431Z" fill="#B6D1D1"/>
<path d="M1204.81 412.496C1207.32 414.104 1207.15 419.705 1205.17 420.772C1203.2 421.839 1192.05 420.777 1192.69 419.23C1191.79 414.81 1202.3 410.899 1204.81 412.496Z" fill="#B6D1D1"/>
<path d="M1326.92 438.887C1326.02 439.63 1324.33 441.409 1322.15 440.958C1319.97 440.507 1320.39 437.403 1322.9 436.399C1327.84 434.715 1328.89 437.256 1326.92 438.887Z" fill="#24989F"/>
<path d="M1302.92 456.038C1299.52 455.562 1293.42 458.852 1297.7 462.137C1301.99 465.421 1306.59 466.808 1307.06 462.411C1307.41 459.221 1308.12 456.765 1302.92 456.038Z" fill="#24989F"/>
<path d="M1322.88 508.943C1326.05 507.636 1329.26 503.091 1328.18 501.431C1326.08 498.185 1318.59 498.548 1319.39 504.255C1319.88 507.749 1320.6 509.877 1322.88 508.943Z" fill="#B6D1D1"/>
<path d="M1397.64 326.694C1405.72 323.908 1401.64 311.528 1394.6 318.525C1387.56 325.523 1383.3 331.646 1397.64 326.694Z" fill="#24989F"/>
<path d="M1428.15 196.703C1430.55 198.857 1434.63 196.335 1435.84 195.902C1439.59 193.125 1433.56 190.627 1432.69 190.46C1425.22 189.04 1424.97 193.868 1428.15 196.703Z" fill="#24989F"/>
<path d="M1373.74 271.568C1372.54 274.617 1367.44 275.604 1366.27 273.698C1365.11 271.791 1364.94 259.543 1366.4 259.913C1370.32 258.012 1374.94 268.52 1373.74 271.568Z" fill="#6CB9BE"/>
<path d="M1456.35 231.302C1455.76 232.343 1454.76 234.65 1452.54 235.129C1450.32 235.609 1449.65 232.627 1451.69 230.69C1455.79 227.142 1457.66 229.021 1456.35 231.302Z" fill="#24989F"/>
<path d="M1521.62 227.78C1518.23 228.738 1513.58 234.215 1518.77 235.442C1523.96 236.669 1528.79 236.049 1527.73 231.867C1526.96 228.832 1526.79 226.315 1521.62 227.78Z" fill="#6CB9BE"/>
<path d="M1496.68 169.699C1493.29 170.658 1488.64 176.134 1493.83 177.361C1499.03 178.588 1503.86 177.968 1502.8 173.787C1502.03 170.752 1501.86 168.234 1496.68 169.699Z" fill="#B6D1D1"/>
<path d="M1438.53 281.982C1438.88 285.484 1443.45 291.027 1445.57 286.127C1447.69 281.228 1447.93 276.365 1443.62 276.675C1440.5 276.902 1437.99 276.63 1438.53 281.982Z" fill="#176E81"/>
<path d="M1346.03 305.749C1348.59 303.266 1350.08 297.832 1348.48 296.768C1345.37 294.687 1338.4 298.077 1341.12 302.922C1342.79 305.89 1344.2 307.526 1346.03 305.749Z" fill="#24989F"/>
<path d="M1308.52 309.255C1315.23 303.428 1307.1 293.873 1302.83 303.095C1298.57 312.317 1296.62 319.602 1308.52 309.255Z" fill="#B6D1D1"/>
<path d="M1249.07 363.349C1247.33 362.673 1238.96 367.735 1240.07 371.018C1241.17 374.301 1250.06 370.339 1251.22 369.041C1252.37 367.742 1252.68 364.755 1249.07 363.349Z" fill="#24989F"/>
<path d="M1278.39 358.778C1273.99 356.168 1272.97 363.072 1274.34 365.1C1275.72 367.129 1277 367.762 1279.01 366.114C1281.02 364.465 1280.88 360.257 1278.39 358.778Z" fill="#E2E8E8"/>
<path d="M1264.3 317.039C1262.22 316.318 1258.12 316.142 1258.36 320.764C1258.59 325.385 1262.35 327.785 1264.51 326.138C1266.66 324.492 1266.97 317.979 1264.3 317.039Z" fill="#6CB9BE"/>
<path d="M1273.1 398.236C1275.46 400.438 1279.58 397.993 1280.79 397.584C1284.59 394.875 1278.6 392.257 1277.73 392.076C1270.31 390.494 1269.97 395.334 1273.1 398.236Z" fill="#B6D1D1"/>
<path d="M1162.77 483.321C1165.25 484.979 1164.99 490.581 1162.99 491.611C1161 492.64 1149.89 491.361 1150.56 489.825C1149.73 485.384 1160.29 481.674 1162.77 483.321Z" fill="#617B7D"/>
<path d="M1599.16 176.356C1594.75 173.746 1593.73 180.65 1595.11 182.678C1596.48 184.707 1597.76 185.34 1599.77 183.692C1601.78 182.043 1601.65 177.835 1599.16 176.356Z" fill="#E2E8E8"/>
<path d="M1585.06 134.617C1582.98 133.896 1578.89 133.72 1579.12 138.342C1579.35 142.963 1583.11 145.363 1585.27 143.716C1587.42 142.07 1587.74 135.557 1585.06 134.617Z" fill="#6CB9BE"/>
<path d="M1593.86 215.814C1596.22 218.016 1600.34 215.571 1601.55 215.161C1605.35 212.453 1599.36 209.835 1598.49 209.654C1591.07 208.072 1590.74 212.912 1593.86 215.814Z" fill="#B6D1D1"/>
<path d="M1483.53 300.898C1486.02 302.556 1485.75 308.159 1483.76 309.188C1481.77 310.218 1470.65 308.939 1471.32 307.403C1470.49 302.962 1481.05 299.252 1483.53 300.898Z" fill="#617B7D"/>
<path d="M1240.59 420.685C1239.68 421.411 1237.97 423.158 1235.8 422.665C1233.63 422.171 1234.1 419.073 1236.62 418.117C1241.58 416.527 1242.59 419.091 1240.59 420.685Z" fill="#24989F"/>
</g>
<defs>
<clipPath id="clip0_28_920">
<rect width="495.122" height="564.687" fill="white" transform="translate(1229.3) rotate(16.1744)"/>
</clipPath>
</defs>
</svg>
